HIERARCHY
ROOT SpineBase
{
  OFFSET 0.000000 0.000000 0.000000
  CHANNELS 6 Xposition Yposition Zposition Zrotation Xrotation Yrotation
  JOINT SpineMid
  {
    OFFSET 0.000000 31.401142 0.000000
    CHANNELS 3 Zrotation Xrotation Yrotation
    JOINT SpineShoulder
    {
      OFFSET -0.468616 23.504233 -0.788182
      CHANNELS 3 Zrotation Xrotation Yrotation
      JOINT Neck
      {
        OFFSET -0.298004 7.838198 -0.583871
        CHANNELS 3 Zrotation Xrotation Yrotation
        JOINT Head
        {
          OFFSET -1.519972 9.023416 6.331742
          CHANNELS 3 Zrotation Xrotation Yrotation
          End Site
          {
            OFFSET 0 0 0
          }
        }
      }
      JOINT ShoulderLeft
      {
        OFFSET -1.959515 -7.290891 12.440966
        CHANNELS 3 Zrotation Xrotation Yrotation
        JOINT ElbowLeft
        {
          OFFSET -2.558892 -30.004516 6.285699
          CHANNELS 3 Zrotation Xrotation Yrotation
          JOINT WristLeft
          {
            OFFSET -0.817084 -31.662895 -0.531565
            CHANNELS 3 Zrotation Xrotation Yrotation
            JOINT HandLeft
            {
              OFFSET 2.974590 -2.382582 5.184851
              CHANNELS 3 Zrotation Xrotation Yrotation
              JOINT HandTipLeft
              {
                OFFSET -0.042014 -2.234248 -0.715199
                CHANNELS 3 Zrotation Xrotation Yrotation
                End Site
                {
                  OFFSET 0 0 0
                }
              }
              JOINT ThumbLeft
              {
                OFFSET -0.564509 2.124824 -3.187029
                CHANNELS 3 Zrotation Xrotation Yrotation
                End Site
                {
                  OFFSET 0 0 0
                }
              }
            }
          }
        }
      }
      JOINT ShoulderRight
      {
        OFFSET -3.134235 -2.559998 -11.878259
        CHANNELS 3 Zrotation Xrotation Yrotation
        JOINT ElbowRight
        {
          OFFSET -8.955302 -26.777565 -3.673056
          CHANNELS 3 Zrotation Xrotation Yrotation
          JOINT WristRight
          {
            OFFSET -6.292535 -27.434453 6.233297
            CHANNELS 3 Zrotation Xrotation Yrotation
            JOINT HandRight
            {
              OFFSET -0.054801 -5.954198 1.185410
              CHANNELS 3 Zrotation Xrotation Yrotation
              JOINT HandTipRight
              {
                OFFSET -0.124736 -5.955412 1.442780
                CHANNELS 3 Zrotation Xrotation Yrotation
                End Site
                {
                  OFFSET 0 0 0
                }
              }
              JOINT ThumbRight
              {
                OFFSET -4.566692 0.774032 -0.431265
                CHANNELS 3 Zrotation Xrotation Yrotation
                End Site
                {
                  OFFSET 0 0 0
                }
              }
            }
          }
        }
      }
    }
  }
  JOINT HipLeft
  {
    OFFSET -1.735172 2.125433 -1.622064
    CHANNELS 3 Zrotation Xrotation Yrotation
    JOINT KneeLeft
    {
      OFFSET 0.905595 -41.042231 -2.313538
      CHANNELS 3 Zrotation Xrotation Yrotation
      JOINT AnkleLeft
      {
        OFFSET 5.338294 -41.807968 8.743838
        CHANNELS 3 Zrotation Xrotation Yrotation
        JOINT FootLeft
        {
          OFFSET -8.810267 -1.494164 -7.992707
          CHANNELS 3 Zrotation Xrotation Yrotation
          End Site
          {
            OFFSET 0 0 0
          }
        }
      }
    }
  }
  JOINT HipRight
  {
    OFFSET -1.348064 1.254345 -4.541528
    CHANNELS 3 Zrotation Xrotation Yrotation
    JOINT KneeRight
    {
      OFFSET 11.426684 -39.480663 8.699203
      CHANNELS 3 Zrotation Xrotation Yrotation
      JOINT AnkleRight
      {
        OFFSET -8.128091 -31.858743 -8.420622
        CHANNELS 3 Zrotation Xrotation Yrotation
        JOINT FootRight
        {
          OFFSET -3.319104 -8.190702 0.551206
          CHANNELS 3 Zrotation Xrotation Yrotation
          End Site
          {
            OFFSET 0 0 0
          }
        }
      }
    }
  }
}
MOTION
Frames: 6
Frame Time: 0.033333
117.739649 78.301670 324.950748 0.290134 0.654842 -11.130351 -0.158280 -0.698528 11.127728 -0.000000 0.000000 0.000000 -0.450123 -0.665387 0.202113 0.000000 0.000000 0.000000 2.968981 14.305527 -1.005588 -2.807602 -14.337419 0.279728 8.302598 -17.946232 -2.215333 6.771998 1.181150 -2.454339 0.000000 0.000000 0.000000 0.000000 0.000000 0.000000 -4.329940 3.110848 -0.323483 6.021561 -3.213422 1.064162 -2.399630 -6.336668 -0.528000 -6.361175 4.624331 -0.934843 0.000000 0.000000 0.000000 0.000000 0.000000 0.000000 11.254349 -2.640090 10.758553 -10.418129 10.787908 2.025209 10.742474 -17.424691 -34.933594 0.000000 0.000000 0.000000 -4.744592 1.181456 11.023461 4.898064 -3.175211 0.179880 -12.939319 12.158195 -4.000876 0.000000 0.000000 0.000000
117.712954 78.349106 324.988147 0.251372 0.596190 -12.166080 -0.120092 -0.635772 12.164106 -0.000000 0.000000 0.000000 -0.000000 0.000000 0.000000 0.000000 0.000000 0.000000 2.536707 14.235137 -1.034596 -2.110009 -16.579337 0.544282 6.124801 -12.624628 -3.205800 7.434264 -8.607851 -0.229575 0.000000 0.000000 0.000000 0.000000 0.000000 0.000000 -4.627878 3.646481 -0.429687 5.743406 -4.373797 1.222057 -1.008544 -5.574810 -0.336416 -7.089608 2.093415 -1.147025 0.000000 0.000000 0.000000 0.000000 0.000000 0.000000 11.228398 -2.480595 11.775695 -10.035853 10.196213 1.956509 12.806454 -20.029453 -30.006005 0.000000 0.000000 0.000000 -4.125670 0.886578 12.054007 5.733207 -3.725417 0.101877 -11.367154 23.547060 -7.294012 0.000000 0.000000 0.000000
117.617842 78.493713 325.068755 0.215198 0.562935 -12.503984 -0.088221 -0.596172 12.502468 -0.000000 0.000000 0.000000 -0.000000 0.000000 0.000000 0.000000 0.000000 0.000000 1.646131 11.972205 -0.872737 -0.958805 -16.612775 0.787625 3.346199 -2.440685 -0.572934 7.093960 -22.065598 -0.943890 0.000000 0.000000 0.000000 0.000000 0.000000 0.000000 -5.282086 3.898254 -0.391402 6.282149 -5.048941 1.317432 1.296093 -4.900051 0.093170 -10.840947 2.459355 -1.727692 0.000000 0.000000 0.000000 0.000000 0.000000 0.000000 10.275049 -2.205067 12.120079 -10.705713 11.384545 1.911623 16.506979 -24.320502 -30.430274 0.000000 0.000000 0.000000 -2.423235 0.517360 12.512650 5.535119 -4.102869 -0.093601 -12.422905 29.375536 -8.667781 0.000000 0.000000 0.000000
117.506046 78.642481 325.150440 0.211635 0.534008 -12.193082 -0.094081 -0.566658 12.191630 -0.000000 0.000000 0.000000 -0.683486 -0.387798 0.413367 0.000000 0.000000 0.000000 1.103178 11.106072 -0.844158 -0.051870 -18.208273 1.044032 0.164349 8.491129 3.547381 6.507928 -34.069284 -3.913712 0.000000 0.000000 0.000000 0.000000 0.000000 0.000000 -6.047566 3.955303 -0.277758 7.357119 -5.265957 1.397344 2.018277 -4.501174 0.210060 -13.269380 3.796043 -2.055072 0.000000 0.000000 0.000000 0.000000 0.000000 0.000000 9.989951 -1.999465 11.800170 -10.519679 11.064850 1.847941 22.791767 -28.013275 -9.307984 0.000000 0.000000 0.000000 -1.206789 -0.058671 12.181225 5.685878 -4.296800 -0.118661 -18.349712 33.707693 -8.173257 0.000000 0.000000 0.000000
117.370434 78.736111 325.254500 0.203007 0.516492 -11.728822 -0.093782 -0.546974 11.727460 -0.000000 0.000000 0.000000 -1.174557 -1.036829 0.644128 0.000000 0.000000 0.000000 0.354763 10.193094 -0.844918 1.109137 -19.651400 1.361850 -3.798326 20.589880 11.454080 1.570365 -48.497330 -12.336455 0.000000 0.000000 0.000000 0.000000 0.000000 0.000000 -6.801280 3.794646 -0.107307 8.529496 -5.146682 1.396201 2.093937 -4.544592 0.226146 -14.393206 5.555824 -2.095183 0.000000 0.000000 0.000000 0.000000 0.000000 0.000000 9.841957 -1.818412 11.325910 -9.380424 9.799526 1.761913 23.531718 -27.938607 -4.608249 0.000000 0.000000 0.000000 -0.093782 -0.546974 11.727460 5.743520 -4.558827 -0.129866 -26.869231 36.322488 -6.003381 0.000000 0.000000 0.000000
117.224802 78.740306 325.352815 0.126043 0.500470 -11.316024 -0.025392 -0.515473 11.315359 -0.000000 0.000000 0.000000 -1.358041 -1.247277 0.735165 0.000000 0.000000 0.000000 -0.075228 9.702753 -0.853964 1.924090 -21.125240 1.606942 -13.082920 34.381335 21.310386 -5.177057 -63.134665 -23.854960 0.000000 0.000000 0.000000 0.000000 0.000000 0.000000 -7.586268 3.439384 0.116569 9.932200 -4.713866 1.334328 1.536526 -5.054118 0.154081 -14.467396 9.353590 -1.786254 0.000000 0.000000 0.000000 0.000000 0.000000 0.000000 10.049370 -1.722852 10.898056 -9.081926 9.208350 1.747596 20.845722 -26.477000 -9.701690 0.000000 0.000000 0.000000 1.273917 -1.243153 11.304304 5.381540 -4.312551 -0.148127 -34.597329 36.925378 -3.452567 0.000000 0.000000 0.000000
